# xmcd CD database file
#
# Track frame offsets:
#	150
#	18348
#	32809
#	46216
#	62966
#	77151
#	91450
#	107943
#	123662
#	142091
#	154711
#	173322
#	188039
#	197937
#	211709
#	229897
#	245120
#	264877
#	278948
#	295102
#	310746
#
# Disc length: 4354 seconds
#
# Revision: 0
# Processed by: cddbd v1.5.2PL0 Copyright (c) Steve Scherf et al.
# Submitted via: CDex 1.70beta2
#
DISCID=2e110015
DTITLE=Neal McCoy - Tailgate
DYEAR=1900
DGENRE=Country
TTITLE0=Neal McCoy - Tail On The Tailgate
TTITLE1=Robert Palmer - Bad Case Of Loving You (Doctor
TTITLE2=Lynn Anderson - Rose Garden
TTITLE3=Billy Ray Cyrus - Trail Of Tears
TTITLE4=Alabama - Hey Baby
TTITLE5=Levantando las manos - Levantando las manos
TTITLE6=Rodney Atkins - If You`re Going Through Hell (
TTITLE7=The Bellamy Brothers - I Need More Of You
TTITLE8=Brad Paisley - The World
TTITLE9=Johnny Cash - Jackson
TTITLE10=Clay Walker - Live, Laugh, Love
TTITLE11=Christina Aguilera - Candyman
TTITLE12=All Shook Up - All Shook Up - Billy Joel
TTITLE13=Gary Alan - Gary Alan - Drinkin' Dark Whis
TTITLE14=Travis Tritt - Southbound Train
TTITLE15=Down At The Twist And Shout - Down At The Twist And Shout
TTITLE16=Brooks&Dunn - Brooks&Dunn - Neon Moon
TTITLE17=Jeff Bates - Rub It In
TTITLE18=Keith Urban - Jeans On
TTITLE19=The Boots Band - Sugar and Pai
TTITLE20=Rodeo - Rodeo Man
EXTD=
EXTT0=
EXTT1=
EXTT2=
EXTT3=
EXTT4=
EXTT5=
EXTT6=
EXTT7=
EXTT8=
EXTT9=
EXTT10=
EXTT11=
EXTT12=
EXTT13=
EXTT14=
EXTT15=
EXTT16=
EXTT17=
EXTT18=
EXTT19=
EXTT20=
PLAYORDER=
